<svg width="60" height="38" viewBox="0 0 60 38" fill="none" xmlns="http://www.w3.org/2000/svg">
<path d="M0 3.16667C0 1.4151 1.91518 0 4.28571 0H55.7143C58.0848 0 60 1.4151 60 3.16667C60 4.91823 58.0848 6.33333 55.7143 6.33333H4.28571C1.91518 6.33333 0 4.91823 0 3.16667ZM0 19C0 17.2484 1.91518 15.8333 4.28571 15.8333H55.7143C58.0848 15.8333 60 17.2484 60 19C60 20.7516 58.0848 22.1667 55.7143 22.1667H4.28571C1.91518 22.1667 0 20.7516 0 19ZM60 34.8333C60 36.5849 58.0848 38 55.7143 38H4.28571C1.91518 38 0 36.5849 0 34.8333C0 33.0818 1.91518 31.6667 4.28571 31.6667H55.7143C58.0848 31.6667 60 33.0818 60 34.8333Z" fill="#E9E8EE"/>
</svg>
