<svg width="28" height="28" viewBox="0 0 28 28" fill="none" xmlns="http://www.w3.org/2000/svg">
<path d="M15.5233 0.984265C15.2423 0.38277 14.6484 0 13.9962 0C13.344 0 12.7554 0.38277 12.4691 0.984265L9.0596 8.21861L1.44526 9.37786C0.808967 9.47628 0.278721 9.93561 0.0825299 10.5644C-0.113661 11.1933 0.0454125 11.8877 0.501424 12.3525L6.02659 17.9902L4.72218 25.9573C4.61614 26.6134 4.88126 27.2805 5.4062 27.6688C5.93115 28.057 6.62577 28.1062 7.19843 27.7945L14.0015 24.0489L20.8046 27.7945C21.3772 28.1062 22.0718 28.0625 22.5968 27.6688C23.1217 27.2751 23.3869 26.6134 23.2808 25.9573L21.9711 17.9902L27.4963 12.3525C27.9523 11.8877 28.1166 11.1933 27.9152 10.5644C27.7137 9.93561 27.1887 9.47628 26.5524 9.37786L18.9328 8.21861L15.5233 0.984265Z" fill="#FFE54D"/>
</svg>
